<svg width="512" height="512" fill="none" xmlns="http://www.w3.org/2000/svg"><style>:root { --light-blue: #43A7DF; --dark-blue: #166691; --yellow: #FFCC43; --black: #0D0810; } .contour-stroke { stroke: var(--black); } .contour-fill { fill: var(--black); }.back { fill: white; } .effect { fill: var(--light-blue); } .eye-effect { stroke: var(--light-blue); } .tail-effect { stroke: var(--light-blue); }@media (prefers-color-scheme: dark) { .back { fill: var(--light-blue); } .effect { fill: var(--dark-blue); } .eye-effect { stroke: var(--yellow); } .tail-effect { stroke: var(--dark-blue); } }</style><path class="back" d="M82 192.5c14.5-4.5 53.5 11 76 28.293l76-10.293 80 10.293c28.5-25 91.99-59.81 111.5-54.793 19.51 5.017 7.5 94.5 7.5 117 0 10.901 28.195 35.882 27.098 39.691C459 326.5 416.51 352.478 413 360.5c-3.5 8-4 30.911-21.5 57-40.839 60.882-240.886 53.138-288.5 4.589C73 391.5 73.5 374.959 73.5 339c0-5.348-27.5-20.5-27.5-24.675 0-4.175 24.528-13.391 23.5-21.325-3.5-27-.285-96.532 12.5-100.5z" fill="#fff"/><path class="effect" d="M124.127 363.855c2.758 1.213 2.206 5.28-.775 5.715l-47.813 6.975a3 3 0 01-3.406-3.372l3.585-26.433a3 3 0 014.181-2.343l44.228 19.458zM133.51 390.802c3.005.224 3.84 4.242 1.174 5.646l-42.752 22.515a3 3 0 01-4.335-2.044l-5.432-26.116a3 3 0 013.16-3.603l48.185 3.602zM320.568 219.463l96.09-60.172 12.03 19.211S398.882 191.065 379 204c-18.569 12.08-36.107 42.38-36.107 42.38l-22.325-26.917zM152.895 218.368l-68.52-28.618-5.625 18.125s22.53 2.718 32.5 10.493c9.681 7.549 22.955 29.295 22.955 29.295l18.69-29.295zM351.521 371.36c-2.953.741-3.052 4.9-.139 5.781l55.494 16.792a3 3 0 003.869-2.872v-30.715a3 3 0 00-3.73-2.91l-55.494 13.924zM332.694 399.871c-3.1.166-3.936 4.355-1.138 5.7l50.304 24.161a3 3 0 003.971-1.34l14.104-27.628c1.051-2.06-.524-4.484-2.833-4.36l-64.408 3.467z"/><path class="eye-effect" d="M135.528 280.685l-1.088 18.719c-.982 16.901 9.187 32.461 25.06 38.346M288.847 295.012l-1.088 18.72c-.982 16.9 9.186 32.46 25.059 38.346" stroke-width="20" stroke-linejoin="round"/><path class="contour-stroke" d="M121.482 285.998l71.402 4.15-.768 13.216c-1.146 19.717-18.059 34.772-37.776 33.626-19.717-1.146-34.772-18.058-33.626-37.775l.768-13.217zM272.565 292.736l89.879 4.669-.934 17.976c-1.146 22.062-19.96 39.017-42.021 37.871l-9.987-.519c-22.061-1.146-39.017-19.96-37.871-42.021l.934-17.976zM213.273 348.248l.153-1.994 21.936 1.681-.153 1.994c-.465 6.058-5.751 10.592-11.809 10.127-6.057-.464-10.591-5.751-10.127-11.808z" stroke-width="20" stroke-linejoin="round"/><path class="contour-stroke" d="M186.692 397.359s9.888-.301 20.82-9.937c10.932-9.637 14.18-34.517 14.18-34.517M253.994 402.519s-11.392-1.845-19.062-12.995c-7.67-11.15-8.753-36.275-8.753-36.275" stroke-width="20" stroke-linecap="round" stroke-linejoin="round"/><path class="contour-stroke" d="M158 220.793C135.5 203.5 96.5 188 82 192.5 69.215 196.468 66 266 69.5 293c1.028 7.934-23.5 17.149-23.5 21.325C46 318.5 73.5 333.652 73.5 339c0 35.959-.5 52.5 29.5 83.089 47.614 48.549 247.661 56.293 288.5-4.589 17.5-26.089 18-49 21.5-57 3.51-8.022 46-34 47.098-37.809C461.195 318.882 433 293.901 433 283c0-22.5 12.01-111.983-7.5-117-19.51-5.017-83 29.793-111.5 54.793" stroke-width="20" stroke-linecap="round" stroke-linejoin="round"/><path class="contour-stroke" d="M131 241.831S174.082 208.5 231.967 208.5c57.886 0 110.033 36 110.033 36" stroke-width="20" stroke-linecap="round"/><path class="back" d="M110.345 96.857a5 5 0 014.525-5.433l97.377-8.887c27.5-2.509 51.827 17.75 54.337 45.25l1.459 15.994a5 5 0 01-4.525 5.434l-97.376 8.886c-27.5 2.51-51.828-17.749-54.337-45.249l-1.46-15.995z"/><path class="back" d="M403.817 70.123a5 5 0 00-5.434-4.525l-95.608 8.725c-27.5 2.51-47.758 26.837-45.249 54.337l1.46 15.995a5 5 0 005.433 4.525l95.608-8.725c27.5-2.509 47.759-26.837 45.249-54.337l-1.459-15.995z"/><path class="tail-effect" d="M123.117 111.306l86.31-7.876c26.849-2.45 50.6 17.329 53.05 44.178M403.314 82.97l-91.538 8.353c-27.5 2.51-47.74 27.043-45.23 54.543" stroke-width="20"/><path class="contour-stroke" d="M121.764 111.943l-1.005-11.015 92.398-8.432c22-2.007 41.462 14.2 43.469 36.2l1.005 11.015-92.397 8.432c-22 2.007-41.462-14.2-43.47-36.2z" stroke-width="20"/><path class="contour-fill" d="M240.876 155.65c-5.14 2.019-7.671 7.823-5.653 12.963 2.019 5.141 7.823 7.672 12.963 5.654l-7.31-18.617zm22.366-4.032l8.304 5.573-8.304-5.573zm-15.056 22.649c10.402-4.085 17.976-9.054 23.36-17.076l-16.607-11.146c-2.304 3.433-5.814 6.366-14.063 9.605l7.31 18.617zm23.36-17.076c2.6-3.875 3.335-8.085 3.575-10.657.129-1.392.138-2.596.115-3.473a26.09 26.09 0 00-.095-1.609 4.452 4.452 0 00-.006-.054l-.002-.024-.002-.012v-.005c0-.003-.001-.005-9.943 1.065-9.943 1.071-9.943 1.068-9.943 1.066l-.001-.005-.001-.01-.002-.018a1.84 1.84 0 00-.003-.032l-.004-.042-.001-.011a9.383 9.383 0 01-.026 1.31c-.101 1.083-.339 1.471-.268 1.365l16.607 11.146z"/><path class="contour-stroke" d="M395.319 87.027l-1.006-11.016-90.628 8.27c-22 2.008-38.207 21.47-36.199 43.47l1.005 11.016 90.628-8.271c22-2.007 38.207-21.469 36.2-43.47z" stroke-width="20"/></svg>